<svg viewBox="0 0 512.00101 512" xmlns="http://www.w3.org/2000/svg"><path d="m225.046875 211.941406c-41.363281 0-75.015625 33.652344-75.015625 75.015625 0 41.359375 33.652344 75.011719 75.015625 75.011719 41.359375 0 75.011719-33.652344 75.011719-75.011719 0-3.539062-.566406-6.921875-1.042969-10.328125l-42.164063 42.164063-.011718-.011719c-8.148438 8.140625-19.394532 13.183594-31.796875 13.183594-24.816407 0-45.007813-20.191406-45.007813-45.007813 0-12.402343 5.042969-23.648437 13.183594-31.796875l-.011719-.011718 42.164063-42.164063c-3.40625-.476563-6.789063-1.042969-10.324219-1.042969zm0 0"/><path d="m282.894531 165.457031c-17.601562-8.421875-37.066406-13.527343-57.847656-13.527343-74.460937 0-135.027344 60.566406-135.027344 135.027343 0 74.457031 60.566407 135.023438 135.027344 135.023438 74.457031 0 135.027344-60.566407 135.027344-135.023438 0-20.785156-5.109375-40.25-13.53125-57.851562l-22.910157 22.910156c3.910157 10.984375 6.433594 22.628906 6.433594 34.941406 0 57.902344-47.121094 105.019531-105.023437 105.019531-57.902344 0-105.019531-47.117187-105.019531-105.019531 0-57.902343 47.117187-105.023437 105.019531-105.023437 12.3125 0 23.957031 2.523437 34.941406 6.433594zm0 0"/><path d="m225.046875 512c124.289063 0 225.042969-100.753906 225.042969-225.042969 0-37.953125-9.484375-73.65625-26.078125-105.023437h-30.300781l-24.652344 24.65625c13.335937 23.804687 21.019531 51.191406 21.019531 80.367187 0 90.996094-74.035156 165.03125-165.03125 165.03125-91 0-165.035156-74.035156-165.035156-165.03125 0-91 74.035156-165.035156 165.035156-165.035156 29.171875 0 56.558594 7.683594 80.363281 21.019531l24.65625-24.652344v-30.300781c-31.367187-16.589843-67.070312-26.078125-105.019531-26.078125-124.292969 0-225.046875 100.757813-225.046875 225.046875 0 124.289063 100.753906 225.042969 225.046875 225.042969zm0 0"/><path d="m265.542969 267.671875 115.746093-115.742187h35.058594l95.652344-90.019532h-61.910156v-61.910156l-90.015625 95.652344v35.0625l-115.746094 115.742187c9.285156 4.441407 16.773437 11.929688 21.214844 21.214844zm0 0"/><path d="m240.046875 286.957031c0 8.285157-6.714844 15-15 15-8.289063 0-15.003906-6.714843-15.003906-15 0-8.289062 6.714843-15.003906 15.003906-15.003906 8.285156 0 15 6.714844 15 15.003906zm0 0"/></svg>