<?xml version="1.0" encoding="iso-8859-1"?>
<!-- Generator: Adobe Illustrator 21.0.0, SVG Export Plug-In . SVG Version: 6.00 Build 0)  -->
<svg xmlns="http://www.w3.org/2000/svg" xmlns:xlink="http://www.w3.org/1999/xlink" version="1.1" id="Capa_1" x="0px" y="0px" viewBox="0 0 512 512" style="enable-background:new 0 0 512 512;" xml:space="preserve" width="512" height="512">
<g>
	<rect x="151" y="150" width="30" height="60"/>
	<polygon points="271,210 301,210 301,141.211 271,111.211  "/>
	<polygon points="211,210 241,210 241,111.211 211,141.211  "/>
	<path d="M466,271h-15V30h15c8.291,0,15-6.709,15-15s-6.709-15-15-15H46c-8.291,0-15,6.709-15,15s6.709,15,15,15h15v241H46   c-8.291,0-15,6.709-15,15s6.709,15,15,15h195v30h-15c-8.291,0-15,6.709-15,15s6.709,15,15,15h15v8.789l-85.605,86.605   c-5.859,5.859-5.859,15.352,0,21.211s15.352,5.859,21.211,0L241,413.211V497c0,8.291,6.709,15,15,15s15-6.709,15-15v-83.789   l64.395,64.395c5.86,5.86,15.351,5.86,21.211,0c5.859-5.859,5.859-15.352,0-21.211L271,369.789V361h15c8.291,0,15-6.709,15-15   s-6.709-15-15-15h-15v-30h195c8.291,0,15-6.709,15-15S474.291,271,466,271z M391,135c0,8.291-6.709,15-15,15s-15-6.709-15-15   v-23.789l-30,30V210h15c8.291,0,15,6.709,15,15s-6.709,15-15,15H136c-8.291,0-15-6.709-15-15V75c0-8.291,6.709-15,15-15   s15,6.709,15,15v45h38.789l55.587-55.587c5.828-5.843,15.396-5.867,21.248,0L316,113.789L339.789,90H316c-8.291,0-15-6.709-15-15   s6.709-15,15-15h60c8.307,0,15,6.835,15,15V135z"/>
</g>















</svg>
